<svg width="155" height="39" viewBox="0 0 155 39" fill="none" xmlns="http://www.w3.org/2000/svg">
<path fill-rule="evenodd" clip-rule="evenodd" d="M54.5712 26.6099C53.3779 26.6099 52.3532 26.4065 51.4987 26.0012C50.6455 25.5945 49.9336 25.0694 49.363 24.4217L50.3616 23.1222C50.5769 23.3701 50.8348 23.6152 51.1338 23.8548C51.4315 24.0958 51.7607 24.3061 52.1187 24.4844C52.4794 24.6627 52.869 24.8075 53.2901 24.9176C53.7098 25.0262 54.157 25.0833 54.6316 25.0833C55.2406 25.0833 55.7509 25.0081 56.1583 24.8549C56.5643 24.7059 56.8908 24.515 57.1349 24.288C57.3791 24.0596 57.5533 23.8075 57.6616 23.5247C57.7714 23.2434 57.8249 22.969 57.8249 22.7085C57.8249 22.2684 57.7097 21.9062 57.4792 21.6151C57.2488 21.3268 56.9484 21.0816 56.5739 20.8839C56.2008 20.6847 55.7756 20.5189 55.2928 20.388C54.8113 20.2557 54.3175 20.1206 53.8086 19.9757C53.2997 19.8309 52.8045 19.6679 52.3231 19.4896C51.8416 19.3113 51.415 19.0815 51.0405 18.7987C50.6688 18.516 50.367 18.1692 50.1366 17.7555C49.9062 17.3446 49.7909 16.8292 49.7909 16.208C49.7909 15.6453 49.9089 15.1286 50.1476 14.662C50.3835 14.194 50.7086 13.7914 51.1228 13.453C51.5371 13.1159 52.0282 12.8554 52.5974 12.6702C53.168 12.4821 53.7839 12.3916 54.4492 12.3916C55.493 12.3916 56.4148 12.556 57.2159 12.8847C58.0155 13.2162 58.7 13.6925 59.2706 14.3096L58.2528 15.5701C57.7357 14.9921 57.1404 14.57 56.4628 14.3096C55.7852 14.0477 55.0733 13.9182 54.3271 13.9182C53.5123 13.9182 52.8457 14.1187 52.3231 14.5157C51.8005 14.9155 51.5412 15.4434 51.5412 16.105C51.5412 16.4908 51.6551 16.8084 51.8869 17.0549C52.1146 17.3014 52.4177 17.5159 52.7908 17.6942C53.1653 17.8725 53.5919 18.0285 54.072 18.1594C54.5534 18.2904 55.0486 18.4269 55.5575 18.5717C56.065 18.7166 56.5616 18.8865 57.043 19.0773C57.5245 19.2695 57.9511 19.5175 58.3228 19.8197C58.6973 20.1234 58.999 20.4911 59.2295 20.9354C59.4599 21.3741 59.5751 21.9187 59.5751 22.5664C59.5751 23.0595 59.486 23.5526 59.3104 24.0401C59.1335 24.529 58.8468 24.9607 58.4462 25.341C58.0457 25.7185 57.5272 26.0263 56.8908 26.2589C56.2516 26.4929 55.4779 26.6099 54.5712 26.6099Z" fill="black"/>
<path fill-rule="evenodd" clip-rule="evenodd" d="M72.3301 26.361V20.0485H64.3963V26.361H62.7064V12.5981H64.3963V18.5206H72.3301V12.5981H74.0187V26.361H72.3301Z" fill="black"/>
<path fill-rule="evenodd" clip-rule="evenodd" d="M77.8034 26.361V12.5981H86.6933V14.1261H79.4906V18.561H86.5479V20.0875H79.4906V24.8358H86.6933V26.361H77.8034Z" fill="black"/>
<path fill-rule="evenodd" clip-rule="evenodd" d="M95.2361 19.3666C96.0495 19.3666 96.7038 19.1215 97.1976 18.6354C97.6928 18.1493 97.9397 17.5169 97.9397 16.7341C97.9397 15.9541 97.6928 15.3246 97.1976 14.8426C96.7038 14.3635 96.0495 14.1239 95.2361 14.1239H91.6766V19.3666H95.2361ZM97.8396 26.3602L94.3802 20.8932H91.6766V26.3602H89.9867V12.5988H95.4391C96.0632 12.5988 96.6325 12.6949 97.1469 12.8871C97.6626 13.0779 98.1098 13.3593 98.4897 13.7214C98.8683 14.0877 99.166 14.5237 99.3758 15.0321C99.5857 15.5419 99.69 16.1129 99.69 16.7439C99.69 17.3637 99.5953 17.9139 99.4019 18.3958C99.2154 18.875 98.9575 19.2803 98.6324 19.6118C98.3059 19.9419 97.9301 20.2024 97.5035 20.3946C97.0755 20.5896 96.6325 20.7066 96.1702 20.7456L99.8312 26.3602H97.8396Z" fill="black"/>
<path fill-rule="evenodd" clip-rule="evenodd" d="M108.621 19.3666C109.434 19.3666 110.088 19.1271 110.584 18.6438C111.079 18.1632 111.327 17.5295 111.327 16.7467C111.327 15.9611 111.079 15.3274 110.584 14.8468C110.088 14.3663 109.434 14.1239 108.621 14.1239H105.06V19.3666H108.621ZM103.371 26.3602V12.5988H108.825C109.503 12.5988 110.106 12.7074 110.634 12.9289C111.164 13.1461 111.608 13.447 111.966 13.8245C112.328 14.2047 112.6 14.6435 112.792 15.1463C112.981 15.6491 113.075 16.1812 113.075 16.7467C113.075 17.3094 112.981 17.8415 112.792 18.3457C112.6 18.8471 112.324 19.2859 111.958 19.6661C111.592 20.0436 111.143 20.3444 110.612 20.5617C110.086 20.7832 109.489 20.8932 108.825 20.8932H105.06V26.3602H103.371Z" fill="black"/>
<path fill-rule="evenodd" clip-rule="evenodd" d="M119.461 14.3721L116.573 21.7821H122.33L119.461 14.3721ZM124.039 26.3618L122.838 23.3072H116.084L114.886 26.3618H112.954L118.405 12.6003H120.498L125.972 26.3618H124.039Z" fill="black"/>
<path fill-rule="evenodd" clip-rule="evenodd" d="M138.361 26.361L130.448 15.3811V26.361H128.759V12.5981H130.488L138.301 23.3496V12.5981H139.986V26.361H138.361Z" fill="black"/>
<path fill-rule="evenodd" clip-rule="evenodd" d="M152.762 12.5973L148.551 18.9961L144.34 12.5973H142.368L147.72 20.5421V26.3629H149.406V20.5421L154.736 12.5973H152.762Z" fill="black"/>
<mask id="mask0" mask-type="alpha" maskUnits="userSpaceOnUse" x="0" y="0" width="28" height="39">
<path fill-rule="evenodd" clip-rule="evenodd" d="M0 0H27.3081V38.2669H0V0Z" fill="white"/>
</mask>
<g mask="url(#mask0)">
<path fill-rule="evenodd" clip-rule="evenodd" d="M25.3292 26.7146V26.7174C25.3361 26.7091 25.3429 26.7035 25.3511 26.6979C27.5788 24.4345 27.8915 22.2965 26.3566 20.7393C25.6899 20.0623 24.9273 19.6737 24.1537 19.6891C23.487 19.703 22.7943 19.9941 21.7464 20.7783L19.0963 22.7798C17.1938 24.2131 15.4942 24.9192 13.7275 24.9443C11.8799 24.975 10.1666 24.1448 8.54942 22.504C5.12433 19.0261 5.29442 13.9282 9.43278 9.68835L18.9769 -0.000366211C8.47397 0.134741 -0.000274658 8.81224 -0.000274658 19.5052C-0.000274658 28.4251 5.89658 35.9395 13.947 38.267L25.3292 26.7146Z" fill="black"/>
</g>
<path fill-rule="evenodd" clip-rule="evenodd" d="M24.7048 1.39282L12.615 13.4368H12.6164C12.5957 13.4587 12.5737 13.4752 12.553 13.4958C10.5482 15.4926 10.6115 17.6349 11.8508 18.8727C12.4525 19.4697 13.108 19.8238 13.8983 19.795C14.6763 19.7565 15.4144 19.5109 16.4512 18.7492L19.0565 16.8059C21.0903 15.2977 22.6999 14.6445 24.2959 14.6033C26.3021 14.5347 28.172 15.4747 29.9043 17.2012C33.6496 20.9313 32.6651 26.1806 28.603 30.2415V30.2429L28.5796 30.2634V30.2662L19.8138 39C30.1452 38.6322 38.4071 30.1756 38.4071 19.7922C38.4071 11.1133 32.6348 3.78075 24.7048 1.39282Z" fill="black"/>
</svg>
